<svg id="svg" version="1.1" xmlns="http://www.w3.org/2000/svg" xmlns:xlink="http://www.w3.org/1999/xlink" width="400" height="400" viewBox="0, 0, 400,400"><g id="svgg"><path id="path0" d="M143.400 84.814 C 131.058 86.940,120.686 105.172,122.244 122.000 C 123.312 133.540,123.767 135.809,126.438 142.932 C 131.347 156.024,139.767 165.421,149.880 169.093 C 152.106 169.901,160.816 170.094,162.438 169.371 C 171.434 165.360,175.971 160.040,179.128 149.800 C 188.586 119.125,167.446 80.672,143.400 84.814 M251.000 84.652 C 236.189 86.100,222.306 104.087,219.394 125.600 C 218.429 132.735,218.895 143.967,220.308 147.600 C 220.521 148.150,221.031 149.680,221.440 151.000 C 228.241 172.945,250.316 176.553,265.252 158.160 C 267.360 155.564,272.000 148.270,272.000 147.552 C 272.000 147.371,272.463 146.212,273.028 144.976 C 274.248 142.310,275.308 139.077,276.191 135.329 C 276.545 133.828,277.049 131.790,277.310 130.800 C 277.949 128.381,277.964 112.760,277.331 110.600 C 277.072 109.720,276.472 107.560,275.997 105.800 C 272.263 91.972,262.304 83.546,251.000 84.652 M78.400 146.730 C 57.185 152.735,55.662 189.554,75.738 211.093 C 92.798 229.396,113.995 225.874,119.635 203.800 C 120.723 199.540,120.931 189.454,120.011 185.600 C 117.247 174.034,114.362 167.790,108.179 159.991 C 99.972 149.638,87.596 144.127,78.400 146.730 M312.830 146.409 C 300.665 148.977,288.365 160.938,283.224 175.200 C 282.946 175.970,282.572 176.960,282.392 177.400 C 282.084 178.153,281.713 179.640,280.221 186.082 C 277.627 197.287,281.541 212.286,288.572 218.082 C 302.818 229.824,323.538 219.508,334.533 195.200 C 345.882 170.108,333.409 142.064,312.830 146.409 M195.036 179.214 C 167.251 182.374,140.132 204.080,123.019 236.855 C 121.944 238.915,120.761 241.144,120.390 241.809 C 119.576 243.269,115.137 253.236,114.426 255.200 C 114.147 255.970,113.772 256.960,113.591 257.400 C 102.795 283.749,108.448 304.825,128.070 311.375 C 148.542 318.209,162.762 305.485,171.184 272.800 C 171.382 272.030,171.811 270.410,172.137 269.200 C 172.463 267.990,173.032 265.650,173.402 264.000 C 173.772 262.350,174.221 260.370,174.400 259.600 C 174.579 258.830,175.118 256.400,175.599 254.200 C 176.080 252.000,176.634 249.660,176.830 249.000 C 177.026 248.340,177.563 246.180,178.024 244.200 C 181.428 229.565,188.868 220.111,199.600 216.783 C 202.039 216.027,202.779 215.107,202.803 212.800 C 202.864 206.818,208.811 198.618,215.478 195.323 C 218.879 193.642,219.043 193.710,218.868 196.736 C 218.350 205.740,223.919 214.329,235.067 221.719 C 245.190 228.429,247.338 231.785,247.407 241.000 C 247.458 247.881,247.343 247.509,251.936 255.600 C 253.752 258.798,253.647 260.353,251.523 261.703 C 250.917 262.089,249.913 263.505,249.226 264.945 C 246.691 270.257,240.702 273.495,232.088 274.210 C 227.556 274.587,227.454 274.789,227.423 283.400 C 227.401 289.567,227.514 290.433,228.889 294.600 C 232.837 306.570,244.232 312.867,261.986 312.889 C 286.478 312.919,298.665 294.633,291.636 268.400 C 290.009 262.327,287.602 255.395,285.579 250.954 C 285.151 250.014,284.800 249.140,284.800 249.013 C 284.800 248.886,283.481 246.131,281.870 242.891 C 260.630 200.187,227.063 175.571,195.036 179.214 " stroke="none" fill="#060606" fill-rule="evenodd"></path><path id="path1" d="M180.425 0.269 C 177.689 0.355,175.232 0.608,174.964 0.830 C 174.697 1.052,172.924 1.343,171.025 1.477 C 169.126 1.611,167.478 1.874,167.363 2.060 C 167.247 2.247,166.353 2.400,165.376 2.400 C 164.399 2.400,163.600 2.554,163.600 2.741 C 163.600 2.929,162.205 3.200,160.500 3.344 C 158.795 3.488,157.340 3.785,157.267 4.003 C 157.193 4.221,156.529 4.400,155.790 4.400 C 155.052 4.400,154.349 4.559,154.229 4.753 C 154.109 4.947,152.841 5.231,151.410 5.384 C 149.979 5.537,148.706 5.829,148.581 6.031 C 148.455 6.234,147.913 6.400,147.376 6.400 C 146.839 6.400,146.400 6.562,146.400 6.761 C 146.400 6.959,145.320 7.247,144.000 7.400 C 142.680 7.553,141.600 7.841,141.600 8.039 C 141.600 8.238,141.060 8.400,140.400 8.400 C 139.740 8.400,139.200 8.569,139.200 8.775 C 139.200 8.982,138.390 9.272,137.400 9.421 C 136.410 9.569,135.600 9.850,135.600 10.045 C 135.600 10.240,135.150 10.400,134.600 10.400 C 134.050 10.400,133.600 10.563,133.600 10.762 C 133.600 10.962,132.700 11.249,131.600 11.400 C 130.500 11.551,129.600 11.838,129.600 12.038 C 129.600 12.237,129.240 12.400,128.800 12.400 C 128.360 12.400,128.000 12.560,128.000 12.755 C 128.000 12.951,127.356 13.232,126.570 13.379 C 125.783 13.527,124.537 13.986,123.800 14.400 C 123.063 14.814,121.817 15.273,121.030 15.421 C 120.244 15.568,119.600 15.849,119.600 16.045 C 119.600 16.240,119.330 16.400,119.000 16.400 C 118.670 16.400,118.400 16.564,118.400 16.765 C 118.400 16.966,117.680 17.251,116.800 17.400 C 115.920 17.549,115.200 17.834,115.200 18.035 C 115.200 18.236,114.840 18.400,114.400 18.400 C 113.960 18.400,113.600 18.566,113.600 18.768 C 113.600 18.971,113.060 19.255,112.400 19.400 C 111.740 19.545,111.200 19.829,111.200 20.032 C 111.200 20.234,110.840 20.400,110.400 20.400 C 109.960 20.400,109.600 20.566,109.600 20.768 C 109.600 20.971,109.060 21.255,108.400 21.400 C 107.740 21.545,107.200 21.829,107.200 22.032 C 107.200 22.234,106.930 22.400,106.600 22.400 C 106.270 22.400,106.000 22.566,106.000 22.768 C 106.000 22.971,105.460 23.255,104.800 23.400 C 104.140 23.545,103.600 23.829,103.600 24.032 C 103.600 24.234,103.330 24.400,103.000 24.400 C 102.670 24.400,102.400 24.560,102.400 24.757 C 102.400 24.953,101.991 25.216,101.492 25.341 C 100.993 25.466,100.190 25.936,99.709 26.385 C 99.227 26.833,98.620 27.200,98.360 27.200 C 97.873 27.200,92.758 30.295,92.400 30.807 C 92.290 30.964,91.795 31.219,91.300 31.373 C 90.805 31.528,90.400 31.822,90.400 32.027 C 90.400 32.232,90.130 32.400,89.800 32.400 C 89.470 32.400,89.200 32.568,89.200 32.773 C 89.200 32.978,88.795 33.274,88.300 33.430 C 87.805 33.587,87.109 34.049,86.753 34.457 C 86.397 34.866,85.930 35.200,85.715 35.200 C 85.500 35.200,84.801 35.651,84.162 36.202 C 83.523 36.754,82.685 37.306,82.300 37.429 C 81.915 37.553,81.600 37.822,81.600 38.027 C 81.600 38.232,81.412 38.400,81.183 38.400 C 80.953 38.400,80.280 38.850,79.687 39.400 C 79.093 39.950,78.484 40.400,78.333 40.400 C 78.181 40.400,77.396 41.024,76.587 41.786 C 75.779 42.549,74.785 43.278,74.379 43.407 C 73.973 43.535,73.530 43.992,73.394 44.420 C 73.257 44.849,72.891 45.200,72.578 45.200 C 72.266 45.200,71.146 46.055,70.089 47.100 C 69.033 48.145,67.483 49.517,66.646 50.149 C 65.060 51.347,50.400 65.850,50.400 66.222 C 50.400 66.498,49.727 67.302,47.972 69.120 C 47.187 69.934,46.198 71.140,45.775 71.800 C 45.351 72.460,44.598 73.328,44.102 73.729 C 43.606 74.130,43.200 74.625,43.200 74.828 C 43.200 75.032,42.570 75.866,41.800 76.682 C 41.030 77.499,40.400 78.318,40.400 78.502 C 40.400 78.687,39.950 79.255,39.400 79.765 C 38.850 80.275,38.400 80.896,38.400 81.146 C 38.400 81.396,38.232 81.600,38.027 81.600 C 37.822 81.600,37.553 81.915,37.429 82.300 C 37.306 82.685,36.754 83.523,36.202 84.162 C 35.651 84.801,35.200 85.500,35.200 85.715 C 35.200 85.930,34.866 86.397,34.457 86.753 C 34.049 87.109,33.587 87.805,33.430 88.300 C 33.274 88.795,32.978 89.200,32.773 89.200 C 32.568 89.200,32.400 89.470,32.400 89.800 C 32.400 90.130,32.223 90.400,32.008 90.400 C 31.792 90.400,31.502 90.850,31.364 91.400 C 31.226 91.950,30.991 92.400,30.841 92.400 C 30.691 92.400,30.042 93.300,29.400 94.400 C 28.758 95.500,28.079 96.400,27.892 96.400 C 27.706 96.400,27.656 96.568,27.783 96.772 C 27.909 96.977,27.830 97.258,27.607 97.396 C 27.383 97.534,27.200 97.914,27.200 98.240 C 27.200 98.567,26.833 99.227,26.385 99.709 C 25.936 100.190,25.466 100.993,25.341 101.492 C 25.216 101.991,24.953 102.400,24.757 102.400 C 24.560 102.400,24.400 102.670,24.400 103.000 C 24.400 103.330,24.234 103.600,24.032 103.600 C 23.829 103.600,23.545 104.140,23.400 104.800 C 23.255 105.460,22.971 106.000,22.768 106.000 C 22.566 106.000,22.400 106.270,22.400 106.600 C 22.400 106.930,22.220 107.200,22.000 107.200 C 21.780 107.200,21.600 107.379,21.600 107.597 C 21.600 108.243,20.235 111.200,19.937 111.200 C 19.787 111.200,19.545 111.738,19.401 112.395 C 19.257 113.053,18.972 113.694,18.769 113.819 C 18.566 113.945,18.400 114.397,18.400 114.824 C 18.400 115.251,18.240 115.600,18.045 115.600 C 17.849 115.600,17.571 116.230,17.426 117.000 C 17.282 117.770,16.992 118.400,16.782 118.400 C 16.572 118.400,16.400 118.670,16.400 119.000 C 16.400 119.330,16.231 119.600,16.025 119.600 C 15.818 119.600,15.528 120.410,15.379 121.400 C 15.231 122.390,14.994 123.200,14.852 123.200 C 14.542 123.200,13.745 124.986,13.378 126.504 C 13.231 127.111,12.951 127.706,12.756 127.827 C 12.560 127.948,12.400 128.397,12.400 128.824 C 12.400 129.251,12.243 129.600,12.051 129.600 C 11.859 129.600,11.586 130.328,11.444 131.217 C 11.301 132.107,11.008 133.187,10.792 133.617 C 10.577 134.048,10.223 134.752,10.008 135.183 C 9.792 135.613,9.498 136.697,9.355 137.591 C 9.212 138.486,8.939 139.314,8.747 139.432 C 8.556 139.551,8.400 140.087,8.400 140.624 C 8.400 141.161,8.229 141.600,8.020 141.600 C 7.811 141.600,7.518 142.680,7.368 144.000 C 7.219 145.320,6.940 146.400,6.748 146.400 C 6.557 146.400,6.400 146.839,6.400 147.376 C 6.400 147.913,6.234 148.455,6.031 148.581 C 5.829 148.706,5.537 149.979,5.384 151.410 C 5.231 152.841,4.947 154.109,4.753 154.229 C 4.559 154.349,4.400 155.067,4.400 155.824 C 4.400 156.581,4.232 157.200,4.027 157.200 C 3.823 157.200,3.529 158.640,3.376 160.400 C 3.222 162.160,2.940 163.600,2.748 163.600 C 2.557 163.600,2.400 164.500,2.400 165.600 C 2.400 166.700,2.242 167.600,2.048 167.600 C 1.854 167.600,1.566 169.715,1.407 172.300 C 1.247 174.885,0.911 177.253,0.659 177.561 C 0.005 178.361,0.005 221.639,0.659 222.439 C 0.911 222.747,1.247 225.115,1.407 227.700 C 1.566 230.285,1.854 232.400,2.048 232.400 C 2.242 232.400,2.400 233.300,2.400 234.400 C 2.400 235.500,2.557 236.400,2.748 236.400 C 2.940 236.400,3.222 237.840,3.376 239.600 C 3.529 241.360,3.823 242.800,4.027 242.800 C 4.232 242.800,4.400 243.520,4.400 244.400 C 4.400 245.280,4.559 246.000,4.753 246.000 C 4.948 246.000,5.232 247.168,5.385 248.596 C 5.538 250.023,5.829 251.294,6.031 251.419 C 6.234 251.545,6.400 252.087,6.400 252.624 C 6.400 253.161,6.557 253.600,6.748 253.600 C 6.940 253.600,7.219 254.680,7.368 256.000 C 7.518 257.320,7.811 258.400,8.020 258.400 C 8.229 258.400,8.400 258.839,8.400 259.376 C 8.400 259.913,8.556 260.449,8.747 260.568 C 8.939 260.686,9.212 261.514,9.355 262.409 C 9.498 263.303,9.792 264.387,10.008 264.817 C 10.223 265.248,10.558 265.922,10.751 266.315 C 10.943 266.709,11.229 267.789,11.386 268.715 C 11.542 269.642,11.834 270.400,12.035 270.400 C 12.236 270.400,12.400 270.749,12.400 271.176 C 12.400 271.603,12.560 272.052,12.756 272.173 C 12.951 272.294,13.231 272.889,13.378 273.496 C 13.765 275.098,14.548 276.800,14.898 276.800 C 15.064 276.800,15.200 277.159,15.200 277.597 C 15.200 278.561,16.473 281.600,16.876 281.600 C 17.034 281.600,17.282 282.230,17.426 283.000 C 17.571 283.770,17.849 284.400,18.045 284.400 C 18.240 284.400,18.400 284.749,18.400 285.176 C 18.400 285.603,18.566 286.055,18.769 286.181 C 18.972 286.306,19.257 286.947,19.401 287.605 C 19.545 288.262,19.784 288.802,19.932 288.805 C 20.079 288.808,20.740 289.978,21.400 291.405 C 22.060 292.832,22.721 294.000,22.868 294.000 C 23.016 294.000,23.255 294.540,23.400 295.200 C 23.545 295.860,23.829 296.400,24.032 296.400 C 24.234 296.400,24.400 296.670,24.400 297.000 C 24.400 297.330,24.560 297.600,24.757 297.600 C 24.953 297.600,25.216 298.009,25.341 298.508 C 25.466 299.007,25.915 299.787,26.338 300.241 C 26.761 300.695,27.232 301.637,27.385 302.333 C 27.538 303.030,27.801 303.600,27.969 303.600 C 28.137 303.600,28.613 304.230,29.028 305.000 C 29.443 305.770,29.921 306.400,30.091 306.400 C 30.261 306.400,30.400 306.670,30.400 307.000 C 30.400 307.330,30.560 307.600,30.757 307.600 C 30.953 307.600,31.226 308.050,31.364 308.600 C 31.502 309.150,31.792 309.600,32.008 309.600 C 32.223 309.600,32.400 309.870,32.400 310.200 C 32.400 310.530,32.568 310.800,32.773 310.800 C 32.978 310.800,33.274 311.205,33.430 311.700 C 33.587 312.195,34.023 312.870,34.400 313.200 C 34.777 313.530,35.213 314.205,35.370 314.700 C 35.526 315.195,35.793 315.600,35.964 315.600 C 36.134 315.600,36.613 316.230,37.028 317.000 C 37.443 317.770,37.921 318.400,38.091 318.400 C 38.261 318.400,38.400 318.604,38.400 318.854 C 38.400 319.104,38.850 319.725,39.400 320.235 C 39.950 320.745,40.400 321.313,40.400 321.498 C 40.400 321.682,41.012 322.482,41.760 323.275 C 42.508 324.068,43.237 325.086,43.380 325.538 C 43.524 325.990,43.983 326.467,44.400 326.600 C 44.817 326.733,45.266 327.178,45.397 327.590 C 45.528 328.002,46.482 329.251,47.517 330.365 C 49.925 332.956,50.400 333.518,50.400 333.778 C 50.400 334.150,65.060 348.653,66.646 349.851 C 67.483 350.483,69.033 351.855,70.089 352.900 C 71.146 353.945,72.266 354.800,72.578 354.800 C 72.891 354.800,73.257 355.151,73.394 355.580 C 73.530 356.008,73.973 356.465,74.379 356.593 C 74.785 356.722,75.779 357.451,76.587 358.214 C 77.396 358.976,78.181 359.600,78.333 359.600 C 78.484 359.600,79.093 360.050,79.687 360.600 C 80.280 361.150,80.953 361.600,81.183 361.600 C 81.412 361.600,81.600 361.768,81.600 361.973 C 81.600 362.178,81.915 362.447,82.300 362.571 C 82.685 362.694,83.523 363.246,84.162 363.798 C 84.801 364.349,85.500 364.800,85.715 364.800 C 85.930 364.800,86.397 365.134,86.753 365.543 C 87.109 365.951,87.805 366.413,88.300 366.570 C 88.795 366.726,89.200 367.022,89.200 367.227 C 89.200 367.432,89.470 367.600,89.800 367.600 C 90.130 367.600,90.400 367.777,90.400 367.992 C 90.400 368.208,90.850 368.498,91.400 368.636 C 91.950 368.774,92.400 369.019,92.400 369.180 C 92.400 369.342,93.070 369.817,93.889 370.237 C 94.708 370.657,95.739 371.322,96.181 371.715 C 96.623 372.109,97.432 372.543,97.979 372.681 C 98.526 372.818,99.336 373.268,99.779 373.681 C 100.222 374.093,100.993 374.534,101.492 374.659 C 101.991 374.784,102.400 375.047,102.400 375.243 C 102.400 375.440,102.670 375.600,103.000 375.600 C 103.330 375.600,103.600 375.766,103.600 375.968 C 103.600 376.171,104.140 376.455,104.800 376.600 C 105.460 376.745,106.000 377.029,106.000 377.232 C 106.000 377.434,106.270 377.600,106.600 377.600 C 106.930 377.600,107.200 377.766,107.200 377.968 C 107.200 378.171,107.740 378.455,108.400 378.600 C 109.060 378.745,109.600 379.029,109.600 379.232 C 109.600 379.434,109.960 379.600,110.400 379.600 C 110.840 379.600,111.200 379.766,111.200 379.968 C 111.200 380.171,111.740 380.455,112.400 380.600 C 113.060 380.745,113.600 381.029,113.600 381.232 C 113.600 381.434,113.960 381.600,114.400 381.600 C 114.840 381.600,115.200 381.764,115.200 381.965 C 115.200 382.166,115.920 382.451,116.800 382.600 C 117.680 382.749,118.400 383.034,118.400 383.235 C 118.400 383.436,118.670 383.600,119.000 383.600 C 119.330 383.600,119.600 383.760,119.600 383.955 C 119.600 384.151,120.244 384.432,121.030 384.579 C 121.817 384.727,123.063 385.186,123.800 385.600 C 124.537 386.014,125.783 386.473,126.570 386.621 C 127.356 386.768,128.000 387.049,128.000 387.245 C 128.000 387.440,128.360 387.600,128.800 387.600 C 129.240 387.600,129.600 387.763,129.600 387.962 C 129.600 388.162,130.500 388.449,131.600 388.600 C 132.700 388.751,133.600 389.038,133.600 389.238 C 133.600 389.437,134.050 389.600,134.600 389.600 C 135.150 389.600,135.600 389.760,135.600 389.955 C 135.600 390.150,136.406 390.430,137.391 390.578 C 138.376 390.725,139.286 391.016,139.414 391.223 C 139.542 391.430,140.076 391.600,140.600 391.600 C 141.124 391.600,141.656 391.767,141.783 391.972 C 141.909 392.177,143.000 392.467,144.206 392.618 C 145.413 392.769,146.400 393.031,146.400 393.201 C 146.400 393.523,146.883 393.651,151.267 394.490 C 152.734 394.771,154.069 395.136,154.234 395.301 C 154.399 395.465,155.118 395.600,155.833 395.600 C 156.548 395.600,157.193 395.779,157.267 395.997 C 157.340 396.215,158.795 396.512,160.500 396.656 C 162.205 396.800,163.600 397.071,163.600 397.259 C 163.600 397.446,164.489 397.600,165.576 397.600 C 166.663 397.600,167.653 397.762,167.776 397.960 C 167.898 398.159,170.114 398.452,172.699 398.611 C 175.430 398.780,177.520 399.090,177.685 399.351 C 178.091 399.990,221.909 399.990,222.315 399.351 C 222.480 399.090,224.570 398.780,227.301 398.611 C 229.886 398.452,232.102 398.159,232.224 397.960 C 232.347 397.762,233.337 397.600,234.424 397.600 C 235.511 397.600,236.400 397.446,236.400 397.259 C 236.400 397.071,237.795 396.800,239.500 396.656 C 241.205 396.512,242.660 396.215,242.733 395.997 C 242.807 395.779,243.471 395.600,244.210 395.600 C 244.948 395.600,245.649 395.444,245.767 395.253 C 245.886 395.062,247.061 394.783,248.379 394.634 C 249.697 394.485,250.882 394.191,251.011 393.982 C 251.141 393.772,251.777 393.600,252.424 393.600 C 253.071 393.600,253.600 393.438,253.600 393.239 C 253.600 393.041,254.680 392.753,256.000 392.600 C 257.320 392.447,258.400 392.159,258.400 391.961 C 258.400 391.762,258.839 391.600,259.376 391.600 C 259.913 391.600,260.458 391.430,260.586 391.223 C 260.714 391.016,261.624 390.725,262.609 390.578 C 263.594 390.430,264.400 390.150,264.400 389.955 C 264.400 389.760,264.850 389.600,265.400 389.600 C 265.950 389.600,266.400 389.437,266.400 389.238 C 266.400 389.038,267.300 388.751,268.400 388.600 C 269.500 388.449,270.400 388.162,270.400 387.962 C 270.400 387.763,270.760 387.600,271.200 387.600 C 271.640 387.600,272.000 387.440,272.000 387.245 C 272.000 387.049,272.644 386.768,273.430 386.621 C 274.217 386.473,275.463 386.014,276.200 385.600 C 276.937 385.186,278.183 384.727,278.970 384.579 C 279.756 384.432,280.400 384.151,280.400 383.955 C 280.400 383.760,280.670 383.600,281.000 383.600 C 281.330 383.600,281.600 383.436,281.600 383.235 C 281.600 383.034,282.320 382.749,283.200 382.600 C 284.080 382.451,284.800 382.166,284.800 381.965 C 284.800 381.764,285.160 381.600,285.600 381.600 C 286.040 381.600,286.400 381.434,286.400 381.232 C 286.400 381.029,286.940 380.745,287.600 380.600 C 288.260 380.455,288.800 380.171,288.800 379.968 C 288.800 379.766,289.160 379.600,289.600 379.600 C 290.040 379.600,290.400 379.434,290.400 379.232 C 290.400 379.029,290.940 378.745,291.600 378.600 C 292.260 378.455,292.800 378.171,292.800 377.968 C 292.800 377.766,293.070 377.600,293.400 377.600 C 293.730 377.600,294.000 377.434,294.000 377.232 C 294.000 377.029,294.540 376.745,295.200 376.600 C 295.860 376.455,296.400 376.171,296.400 375.968 C 296.400 375.766,296.670 375.600,297.000 375.600 C 297.330 375.600,297.600 375.440,297.600 375.243 C 297.600 375.047,298.009 374.784,298.508 374.659 C 299.007 374.534,299.778 374.093,300.221 373.681 C 300.664 373.268,301.474 372.818,302.021 372.681 C 302.568 372.543,303.377 372.109,303.819 371.715 C 304.261 371.322,305.292 370.657,306.111 370.237 C 306.930 369.817,307.600 369.342,307.600 369.180 C 307.600 369.019,308.050 368.774,308.600 368.636 C 309.150 368.498,309.600 368.208,309.600 367.992 C 309.600 367.777,309.870 367.600,310.200 367.600 C 310.530 367.600,310.800 367.432,310.800 367.227 C 310.800 367.022,311.205 366.726,311.700 366.570 C 312.195 366.413,312.891 365.951,313.247 365.543 C 313.603 365.134,314.070 364.800,314.285 364.800 C 314.500 364.800,315.199 364.349,315.838 363.798 C 316.477 363.246,317.315 362.694,317.700 362.571 C 318.085 362.447,318.400 362.178,318.400 361.973 C 318.400 361.768,318.588 361.600,318.817 361.600 C 319.047 361.600,319.720 361.150,320.313 360.600 C 320.907 360.050,321.516 359.600,321.667 359.600 C 321.819 359.600,322.604 358.976,323.413 358.214 C 324.221 357.451,325.215 356.722,325.621 356.593 C 326.027 356.465,326.467 356.017,326.600 355.600 C 326.733 355.183,327.232 354.717,327.710 354.565 C 328.188 354.413,329.306 353.549,330.195 352.645 C 331.084 351.740,332.510 350.476,333.363 349.836 C 335.205 348.454,350.000 333.712,350.000 333.258 C 350.000 333.086,350.983 331.904,352.185 330.633 C 353.387 329.362,354.477 327.989,354.606 327.582 C 354.735 327.174,355.183 326.733,355.600 326.600 C 356.017 326.467,356.476 325.990,356.620 325.538 C 356.763 325.086,357.492 324.068,358.240 323.275 C 358.988 322.482,359.600 321.682,359.600 321.498 C 359.600 321.313,360.050 320.745,360.600 320.235 C 361.150 319.725,361.600 319.104,361.600 318.854 C 361.600 318.604,361.739 318.400,361.909 318.400 C 362.079 318.400,362.557 317.770,362.972 317.000 C 363.387 316.230,363.866 315.600,364.036 315.600 C 364.207 315.600,364.474 315.195,364.630 314.700 C 364.787 314.205,365.223 313.530,365.600 313.200 C 365.977 312.870,366.413 312.195,366.570 311.700 C 366.726 311.205,367.022 310.800,367.227 310.800 C 367.432 310.800,367.600 310.530,367.600 310.200 C 367.600 309.870,367.777 309.600,367.992 309.600 C 368.208 309.600,368.498 309.150,368.636 308.600 C 368.774 308.050,369.047 307.600,369.243 307.600 C 369.440 307.600,369.600 307.330,369.600 307.000 C 369.600 306.670,369.739 306.400,369.909 306.400 C 370.079 306.400,370.557 305.770,370.972 305.000 C 371.387 304.230,371.888 303.600,372.087 303.600 C 372.285 303.600,372.344 303.432,372.217 303.228 C 372.091 303.023,372.170 302.742,372.393 302.604 C 372.617 302.466,372.800 302.086,372.800 301.760 C 372.800 301.433,373.167 300.773,373.615 300.291 C 374.064 299.810,374.534 299.007,374.659 298.508 C 374.784 298.009,375.047 297.600,375.243 297.600 C 375.440 297.600,375.600 297.330,375.600 297.000 C 375.600 296.670,375.766 296.400,375.968 296.400 C 376.171 296.400,376.455 295.860,376.600 295.200 C 376.745 294.540,376.984 294.000,377.132 294.000 C 377.279 294.000,377.940 292.832,378.600 291.405 C 379.260 289.978,379.921 288.808,380.068 288.805 C 380.216 288.802,380.455 288.262,380.599 287.605 C 380.743 286.947,381.028 286.306,381.231 286.181 C 381.434 286.055,381.600 285.603,381.600 285.176 C 381.600 284.749,381.760 284.400,381.955 284.400 C 382.151 284.400,382.429 283.770,382.574 283.000 C 382.718 282.230,382.966 281.600,383.124 281.600 C 383.527 281.600,384.800 278.561,384.800 277.597 C 384.800 277.159,384.936 276.800,385.102 276.800 C 385.452 276.800,386.235 275.098,386.622 273.496 C 386.769 272.889,387.049 272.294,387.244 272.173 C 387.440 272.052,387.600 271.603,387.600 271.176 C 387.600 270.749,387.757 270.400,387.949 270.400 C 388.141 270.400,388.414 269.672,388.556 268.783 C 388.699 267.893,388.992 266.813,389.208 266.383 C 389.423 265.952,389.777 265.248,389.992 264.817 C 390.208 264.387,390.502 263.303,390.645 262.409 C 390.788 261.514,391.061 260.686,391.253 260.568 C 391.444 260.449,391.600 259.913,391.600 259.376 C 391.600 258.839,391.771 258.400,391.980 258.400 C 392.189 258.400,392.482 257.320,392.632 256.000 C 392.781 254.680,393.060 253.600,393.252 253.600 C 393.443 253.600,393.600 253.161,393.600 252.624 C 393.600 252.087,393.766 251.545,393.969 251.419 C 394.171 251.294,394.463 250.021,394.616 248.590 C 394.769 247.159,395.053 245.891,395.247 245.771 C 395.441 245.651,395.600 244.933,395.600 244.176 C 395.600 243.419,395.768 242.800,395.973 242.800 C 396.177 242.800,396.471 241.360,396.624 239.600 C 396.778 237.840,397.060 236.400,397.252 236.400 C 397.443 236.400,397.600 235.500,397.600 234.400 C 397.600 233.300,397.758 232.400,397.952 232.400 C 398.146 232.400,398.435 230.285,398.596 227.700 C 398.769 224.922,399.075 222.883,399.344 222.715 C 399.996 222.306,399.994 178.360,399.341 177.562 C 399.089 177.253,398.753 174.885,398.593 172.300 C 398.434 169.715,398.146 167.600,397.952 167.600 C 397.758 167.600,397.600 166.700,397.600 165.600 C 397.600 164.500,397.443 163.600,397.252 163.600 C 397.060 163.600,396.778 162.160,396.624 160.400 C 396.471 158.640,396.177 157.200,395.973 157.200 C 395.768 157.200,395.600 156.480,395.600 155.600 C 395.600 154.720,395.441 154.000,395.247 154.000 C 395.052 154.000,394.768 152.832,394.615 151.404 C 394.462 149.977,394.171 148.706,393.969 148.581 C 393.766 148.455,393.600 147.913,393.600 147.376 C 393.600 146.839,393.443 146.400,393.252 146.400 C 393.060 146.400,392.781 145.320,392.632 144.000 C 392.482 142.680,392.189 141.600,391.980 141.600 C 391.771 141.600,391.600 141.161,391.600 140.624 C 391.600 140.087,391.444 139.551,391.253 139.432 C 391.061 139.314,390.788 138.486,390.645 137.591 C 390.502 136.697,390.208 135.613,389.992 135.183 C 389.777 134.752,389.423 134.048,389.208 133.617 C 388.992 133.187,388.699 132.107,388.556 131.217 C 388.414 130.328,388.141 129.600,387.949 129.600 C 387.757 129.600,387.600 129.251,387.600 128.824 C 387.600 128.397,387.440 127.948,387.244 127.827 C 387.049 127.706,386.769 127.111,386.622 126.504 C 386.235 124.902,385.452 123.200,385.102 123.200 C 384.936 123.200,384.800 122.841,384.800 122.403 C 384.800 121.439,383.527 118.400,383.124 118.400 C 382.966 118.400,382.718 117.770,382.574 117.000 C 382.429 116.230,382.151 115.600,381.955 115.600 C 381.760 115.600,381.600 115.251,381.600 114.824 C 381.600 114.397,381.434 113.945,381.231 113.819 C 381.028 113.694,380.743 113.053,380.599 112.395 C 380.455 111.738,380.216 111.198,380.068 111.195 C 379.921 111.192,379.260 110.022,378.600 108.595 C 377.940 107.168,377.279 106.000,377.132 106.000 C 376.984 106.000,376.745 105.460,376.600 104.800 C 376.455 104.140,376.171 103.600,375.968 103.600 C 375.766 103.600,375.600 103.330,375.600 103.000 C 375.600 102.670,375.440 102.400,375.243 102.400 C 375.047 102.400,374.784 101.991,374.659 101.492 C 374.534 100.993,374.085 100.213,373.662 99.759 C 373.239 99.305,372.768 98.363,372.615 97.667 C 372.462 96.970,372.199 96.400,372.031 96.400 C 371.863 96.400,371.387 95.770,370.972 95.000 C 370.557 94.230,370.079 93.600,369.909 93.600 C 369.739 93.600,369.600 93.330,369.600 93.000 C 369.600 92.670,369.440 92.400,369.243 92.400 C 369.047 92.400,368.774 91.950,368.636 91.400 C 368.498 90.850,368.208 90.400,367.992 90.400 C 367.777 90.400,367.600 90.130,367.600 89.800 C 367.600 89.470,367.432 89.200,367.227 89.200 C 367.022 89.200,366.726 88.795,366.570 88.300 C 366.413 87.805,365.951 87.109,365.543 86.753 C 365.134 86.397,364.800 85.930,364.800 85.715 C 364.800 85.500,364.349 84.801,363.798 84.162 C 363.246 83.523,362.694 82.685,362.571 82.300 C 362.447 81.915,362.178 81.600,361.973 81.600 C 361.768 81.600,361.600 81.396,361.600 81.146 C 361.600 80.896,361.150 80.275,360.600 79.765 C 360.050 79.255,359.600 78.687,359.600 78.502 C 359.600 78.318,358.988 77.518,358.240 76.725 C 357.492 75.932,356.763 74.914,356.620 74.462 C 356.476 74.010,356.017 73.533,355.600 73.400 C 355.183 73.267,354.736 72.827,354.607 72.421 C 354.478 72.016,353.299 70.545,351.986 69.153 C 350.674 67.760,349.600 66.484,349.600 66.315 C 349.600 65.872,335.160 51.511,333.344 50.149 C 332.501 49.517,331.084 48.260,330.195 47.355 C 329.306 46.451,328.188 45.587,327.710 45.435 C 327.232 45.283,326.733 44.817,326.600 44.400 C 326.467 43.983,326.027 43.535,325.621 43.407 C 325.215 43.278,324.221 42.549,323.413 41.786 C 322.604 41.024,321.819 40.400,321.667 40.400 C 321.516 40.400,320.907 39.950,320.313 39.400 C 319.720 38.850,319.047 38.400,318.817 38.400 C 318.588 38.400,318.400 38.261,318.400 38.091 C 318.400 37.921,317.770 37.443,317.000 37.028 C 316.230 36.613,315.600 36.134,315.600 35.964 C 315.600 35.793,315.195 35.526,314.700 35.370 C 314.205 35.213,313.530 34.777,313.200 34.400 C 312.870 34.023,312.195 33.587,311.700 33.430 C 311.205 33.274,310.800 32.978,310.800 32.773 C 310.800 32.568,310.530 32.400,310.200 32.400 C 309.870 32.400,309.600 32.232,309.600 32.027 C 309.600 31.822,309.195 31.528,308.700 31.373 C 308.205 31.219,307.710 30.964,307.600 30.807 C 307.242 30.295,302.127 27.200,301.640 27.200 C 301.380 27.200,300.773 26.833,300.291 26.385 C 299.810 25.936,299.007 25.466,298.508 25.341 C 298.009 25.216,297.600 24.953,297.600 24.757 C 297.600 24.560,297.330 24.400,297.000 24.400 C 296.670 24.400,296.400 24.234,296.400 24.032 C 296.400 23.829,295.860 23.545,295.200 23.400 C 294.540 23.255,294.000 22.971,294.000 22.768 C 294.000 22.566,293.730 22.400,293.400 22.400 C 293.070 22.400,292.800 22.234,292.800 22.032 C 292.800 21.829,292.260 21.545,291.600 21.400 C 290.940 21.255,290.400 20.971,290.400 20.768 C 290.400 20.566,290.040 20.400,289.600 20.400 C 289.160 20.400,288.800 20.234,288.800 20.032 C 288.800 19.829,288.260 19.545,287.600 19.400 C 286.940 19.255,286.400 18.971,286.400 18.768 C 286.400 18.566,286.040 18.400,285.600 18.400 C 285.160 18.400,284.800 18.236,284.800 18.035 C 284.800 17.834,284.080 17.549,283.200 17.400 C 282.320 17.251,281.600 16.966,281.600 16.765 C 281.600 16.564,281.330 16.400,281.000 16.400 C 280.670 16.400,280.400 16.231,280.400 16.025 C 280.400 15.818,279.590 15.528,278.600 15.379 C 277.610 15.231,276.800 14.994,276.800 14.852 C 276.800 14.498,274.863 13.673,273.297 13.359 C 272.584 13.217,272.000 12.943,272.000 12.750 C 272.000 12.558,271.640 12.400,271.200 12.400 C 270.760 12.400,270.400 12.237,270.400 12.038 C 270.400 11.838,269.500 11.551,268.400 11.400 C 267.300 11.249,266.400 10.962,266.400 10.762 C 266.400 10.563,265.950 10.400,265.400 10.400 C 264.850 10.400,264.400 10.240,264.400 10.045 C 264.400 9.850,263.590 9.569,262.600 9.421 C 261.610 9.272,260.800 8.982,260.800 8.775 C 260.800 8.569,260.271 8.400,259.624 8.400 C 258.977 8.400,258.349 8.241,258.229 8.047 C 258.109 7.852,257.018 7.570,255.805 7.418 C 254.592 7.266,253.600 6.975,253.600 6.771 C 253.600 6.567,253.161 6.400,252.624 6.400 C 252.087 6.400,251.545 6.234,251.419 6.031 C 251.294 5.829,250.021 5.537,248.590 5.384 C 247.159 5.231,245.891 4.947,245.771 4.753 C 245.651 4.559,244.948 4.400,244.210 4.400 C 243.471 4.400,242.807 4.221,242.733 4.003 C 242.660 3.785,241.205 3.488,239.500 3.344 C 237.795 3.200,236.400 2.929,236.400 2.741 C 236.400 2.554,235.601 2.400,234.624 2.400 C 233.647 2.400,232.753 2.247,232.637 2.060 C 232.522 1.874,230.874 1.611,228.975 1.477 C 227.076 1.343,225.275 1.028,224.972 0.777 C 224.410 0.311,191.163 -0.068,180.425 0.269 M153.400 85.486 C 177.942 93.165,190.273 137.530,174.176 160.238 C 171.152 164.504,168.198 166.803,162.438 169.371 C 160.816 170.094,152.106 169.901,149.880 169.093 C 139.767 165.421,131.347 156.024,126.438 142.932 C 123.767 135.809,123.312 133.540,122.244 122.000 C 120.150 99.385,136.517 80.203,153.400 85.486 M259.200 85.454 C 266.865 88.024,273.303 95.822,275.997 105.800 C 276.472 107.560,277.072 109.720,277.331 110.600 C 277.964 112.760,277.949 128.381,277.310 130.800 C 277.049 131.790,276.545 133.828,276.191 135.329 C 275.308 139.077,274.248 142.310,273.028 144.976 C 272.463 146.212,272.000 147.371,272.000 147.552 C 272.000 148.270,267.360 155.564,265.252 158.160 C 250.316 176.553,228.241 172.945,221.440 151.000 C 221.031 149.680,220.521 148.150,220.308 147.600 C 218.895 143.967,218.429 132.735,219.394 125.600 C 222.946 99.356,242.337 79.798,259.200 85.454 M90.200 147.124 C 103.047 151.145,114.173 164.210,118.710 180.600 C 120.357 186.550,120.536 187.860,120.545 194.000 C 120.602 232.537,80.656 232.287,65.047 193.653 C 61.834 185.702,60.637 171.874,62.531 164.600 C 66.196 150.526,77.752 143.227,90.200 147.124 M323.280 147.152 C 337.926 152.237,343.398 175.600,334.533 195.200 C 323.538 219.508,302.818 229.824,288.572 218.082 C 281.541 212.286,277.627 197.287,280.221 186.082 C 281.713 179.640,282.084 178.153,282.392 177.400 C 282.572 176.960,282.946 175.970,283.224 175.200 C 290.290 155.597,309.289 142.294,323.280 147.152 M210.763 179.830 C 233.928 183.802,254.386 199.059,271.865 225.400 C 276.233 231.983,284.800 247.622,284.800 249.013 C 284.800 249.140,285.151 250.014,285.579 250.954 C 287.602 255.395,290.009 262.327,291.636 268.400 C 298.665 294.633,286.478 312.919,261.986 312.889 C 244.232 312.867,232.837 306.570,228.889 294.600 C 227.514 290.433,227.401 289.567,227.423 283.400 C 227.454 274.789,227.556 274.587,232.088 274.210 C 240.702 273.495,246.691 270.257,249.226 264.945 C 249.913 263.505,250.917 262.089,251.523 261.703 C 253.647 260.353,253.752 258.798,251.936 255.600 C 247.343 247.509,247.458 247.881,247.407 241.000 C 247.338 231.785,245.190 228.429,235.067 221.719 C 223.919 214.329,218.350 205.740,218.868 196.736 C 219.043 193.710,218.879 193.642,215.478 195.323 C 208.811 198.618,202.864 206.818,202.803 212.800 C 202.779 215.107,202.039 216.027,199.600 216.783 C 188.868 220.111,181.428 229.565,178.024 244.200 C 177.563 246.180,177.026 248.340,176.830 249.000 C 176.634 249.660,176.080 252.000,175.599 254.200 C 175.118 256.400,174.579 258.830,174.400 259.600 C 174.221 260.370,173.772 262.350,173.402 264.000 C 173.032 265.650,172.463 267.990,172.137 269.200 C 171.811 270.410,171.382 272.030,171.184 272.800 C 162.762 305.485,148.542 318.209,128.070 311.375 C 108.448 304.825,102.795 283.749,113.591 257.400 C 113.772 256.960,114.147 255.970,114.426 255.200 C 115.137 253.236,119.576 243.269,120.390 241.809 C 120.761 241.144,121.944 238.915,123.019 236.855 C 143.802 197.049,178.745 174.339,210.763 179.830 " stroke="none" fill="#fa7e7e" fill-rule="evenodd"></path></g></svg>